# xmcd
#
# Track frame offsets: 
#        150
#        15664
#        36295
#        57047
#        73117
#        90446
#        120517
#        137063
#        153861
#        174504
#
# Disc length: 2632 seconds
#
# Revision: 1
# Processed by: cddbd v1.5.2PL0 Copyright (c) Steve Scherf et al.
# Submitted via: ExactAudioCopy v1.0b3
#
DISCID=780a460a
DTITLE=King Size Band - King Size Band (PROMOTION)
DYEAR=1998
DGENRE=Bluesrock
TTITLE0=It´s Allright
TTITLE1=Have Mercy
TTITLE2=Downsouth
TTITLE3=Elevator Blues
TTITLE4=Boogie Mama
TTITLE5=Gasoline Blues
TTITLE6=She´s My Baby
TTITLE7=Take Me Home
TTITLE8=Walking The Dog
TTITLE9=Rolling And Tumbling
EXTD=
EXTT0=
EXTT1=
EXTT2=
EXTT3=
EXTT4=
EXTT5=
EXTT6=
EXTT7=
EXTT8=
EXTT9=
PLAYORDER=
